<svg xmlns="http://www.w3.org/2000/svg" viewBox="2174.35 1435.044 81.148 78.278">
  <defs>
    <style>
      .cls-1 {
        fill: #f490b1;
      }

      .cls-2 {
        fill: #2e4970;
      }

      .cls-3, .cls-4 {
        fill: #fff;
      }

      .cls-4 {
        opacity: 0.33;
      }
    </style>
  </defs>
  <g id="Heart_Nebula_1" data-name="Heart Nebula_1" transform="translate(2174.35 1435.044)">
    <g id="Layer_2" data-name="Layer 2">
      <path id="path" class="cls-1" d="M133.117,110.407c-6.037-4.409-22.044-13.791-27.878-8.173-6.1,5.875,3.909,21.03,8.485,26.845a96.057,96.057,0,0,0,6.535,7.447c.373.442.711.767,2.518,2.5a133.023,133.023,0,0,0,10.338,8.717h0a131.633,131.633,0,0,0,10.331-8.715c1.807-1.741,2.144-2.065,2.518-2.5a96.063,96.063,0,0,0,6.535-7.447c4.8-6.082,14.558-21.011,8.495-26.847C154.879,96.345,138.88,106.2,133.117,110.407Z" transform="translate(-92.541 -89.928)"/>
      <path id="path-2" data-name="path" class="cls-2" d="M123.2,139.317l-.7-.522a134.941,134.941,0,0,1-10.443-8.808c-1.814-1.747-2.173-2.087-2.572-2.563a97.319,97.319,0,0,1-6.586-7.513,69.441,69.441,0,0,1-8.4-13.647c-3.017-6.857-3.017-11.811.016-14.733,2.9-2.788,7.971-2.759,15.085.088a70.72,70.72,0,0,1,13.589,7.5c4.11-2.9,21.527-14.468,28.674-7.587a8.179,8.179,0,0,1,2.254,6.7,23.955,23.955,0,0,1-2.174,7.92,69.621,69.621,0,0,1-8.462,13.765,97.285,97.285,0,0,1-6.587,7.513c-.4.471-.757.815-2.565,2.555l-.007.007a134.078,134.078,0,0,1-10.435,8.8h0ZM100.41,91.76a6,6,0,0,0-4.295,1.425c-5.1,4.9,3.391,18.7,8.593,25.308a95.056,95.056,0,0,0,6.457,7.358l.054.059c.326.385.633.685,2.437,2.421,3.459,3.331,7.864,6.8,9.542,8.1,1.67-1.294,6.078-4.764,9.542-8.1l.007-.007c1.734-1.67,2.1-2.017,2.428-2.413l.054-.059a95.033,95.033,0,0,0,6.453-7.358,66.985,66.985,0,0,0,8.162-13.264c3.167-7.249,1.983-10.551.431-12.044-1.575-1.516-5.08-2.654-12.835.535a70.78,70.78,0,0,0-13.565,7.737l-.677.494-.677-.494a69.554,69.554,0,0,0-13.765-7.707A24.2,24.2,0,0,0,100.41,91.76Z" transform="translate(-82.62 -80.053)"/>
      <path id="path-3" data-name="path" class="cls-3" d="M254.989,463.077c-4.741,0-8.995-4.769-11.979-13.429a67.4,67.4,0,0,1-2.869-12.335c-.347-2.43-.6-4.967-.751-7.541l2.3-.135c.147,2.511.393,4.984.73,7.351a64.708,64.708,0,0,0,2.766,11.911,28.309,28.309,0,0,0,4.621,8.87c1.681,2,3.427,3.006,5.188,3.006s3.506-1.011,5.187-3.006a28.449,28.449,0,0,0,4.619-8.87,64.943,64.943,0,0,0,2.768-11.916c.338-2.371.584-4.846.73-7.354l2.3.135c-.151,2.572-.4,5.113-.75,7.544a67.214,67.214,0,0,1-2.871,12.339C263.982,458.309,259.729,463.077,254.989,463.077Z" transform="translate(-214.41 -384.799)"/>
      <path id="path-4" data-name="path" class="cls-4" d="M244.54,132.009l.209-1.5a67.163,67.163,0,0,1,2.871-12.339l.417-1.221,1.163.561a72.556,72.556,0,0,1,11.067,6.76l1.276.928-1.268.927c-1.99,1.454-3.981,3.039-5.917,4.708l-.3.255-.39.021c-2.6.141-5.168.379-7.631.7Zm4.848-11.846a65,65,0,0,0-2.131,9.183c1.922-.223,3.9-.39,5.9-.51,1.477-1.262,2.982-2.474,4.5-3.62a70.124,70.124,0,0,0-8.265-5.053Z" transform="translate(-219.023 -104.746)"/>
      <path id="path-5" data-name="path" class="cls-4" d="M129.61,252.009l-.9-1.148a68.937,68.937,0,0,1-7.022-10.675l-.626-1.207,1.3-.417a74.1,74.1,0,0,1,12.787-2.762l1.5-.2-.213,1.5c-.338,2.366-.584,4.837-.73,7.346l-.024.411-.28.3c-1.742,1.878-3.383,3.8-4.879,5.7Zm-5.23-11.663a67.143,67.143,0,0,0,5.248,7.95c1.2-1.47,2.471-2.942,3.8-4.392.12-1.9.3-3.785.522-5.615A72.15,72.15,0,0,0,124.38,240.346Z" transform="translate(-108.428 -211.015)"/>
      <path id="path-6" data-name="path" class="cls-4" d="M299.8,189.873l2.554-2.2c1.983-1.707,4.022-3.328,6.061-4.818l.677-.5.677.5c2.037,1.489,4.076,3.11,6.061,4.818l2.556,2.2-3.367-.184a110.359,110.359,0,0,0-11.853,0Zm9.287-2.639c.886,0,1.774.01,2.659.031q-1.323-1.061-2.657-2.057-1.333.993-2.657,2.057,1.33-.031,2.658-.031Z" transform="translate(-268.516 -163.331)"/>
      <path id="path-7" data-name="path" class="cls-4" d="M431.277,245.981l-.9-1.148a97.549,97.549,0,0,0-8.948-9.845c-1.4-1.357-2.85-2.67-4.3-3.918l-2.557-2.2,3.367.184a84.547,84.547,0,0,1,20.421,3.428h.3l.934.933-.389.746a69.226,69.226,0,0,1-7.022,10.673Zm-10.122-14.4q.939.864,1.864,1.753a101.049,101.049,0,0,1,8.244,8.932,67.326,67.326,0,0,0,5.248-7.949,80.354,80.354,0,0,0-15.354-2.735Z" transform="translate(-371.31 -204.988)"/>
      <path id="path-8" data-name="path" class="cls-4" d="M253.553,264.357l-.677-.5c-2.022-1.478-4.059-3.1-6.052-4.813-1.484-1.278-2.966-2.628-4.4-4.012s-2.824-2.8-4.158-4.239l-.28-.3-.024-.411c-.112-1.923-.169-3.886-.169-5.834s.056-3.914.169-5.844l.024-.411.28-.3c1.317-1.421,2.713-2.847,4.157-4.238s2.922-2.732,4.4-4.006l.3-.255.39-.021c1.989-.1,4.024-.164,6.052-.164s4.063.055,6.052.164l.39.021.3.255c1.483,1.276,2.962,2.623,4.4,4.006a99.835,99.835,0,0,1,9.159,10.079l.558.71-.558.71c-1.544,1.962-3.225,3.925-5,5.835-1.327,1.433-2.729,2.86-4.163,4.243s-2.922,2.738-4.4,4.011c-1.983,1.7-4.015,3.322-6.052,4.814ZM240.226,249.54c1.22,1.305,2.492,2.6,3.786,3.843,1.407,1.357,2.856,2.675,4.308,3.926,1.726,1.485,3.484,2.895,5.234,4.2,1.763-1.315,3.522-2.726,5.234-4.2,1.448-1.246,2.9-2.566,4.306-3.923s2.774-2.749,4.07-4.151c1.515-1.634,2.962-3.308,4.311-4.984a98.309,98.309,0,0,0-8.383-9.136c-1.307-1.261-2.654-2.491-4-3.663a110.438,110.438,0,0,0-11.072,0c-1.349,1.17-2.7,2.4-4.006,3.664s-2.576,2.556-3.782,3.843c-.094,1.749-.142,3.528-.142,5.295s.048,3.54.142,5.289Z" transform="translate(-212.977 -205.113)"/>
      <path id="path-9" data-name="path" class="cls-4" d="M196.762,307.555l-2.174-2.344c-1.781-1.921-3.463-3.886-5-5.844l-.558-.71.558-.709c1.535-1.952,3.217-3.917,5-5.844l2.174-2.345-.186,3.192c-.1,1.878-.165,3.8-.165,5.706s.055,3.822.165,5.7Zm-4.805-8.894q1.055,1.313,2.191,2.623c-.023-.873-.034-1.749-.034-2.621s.011-1.751.034-2.626Q193.014,297.346,191.957,298.661Z" transform="translate(-169.305 -259.524)"/>
      <path id="path-10" data-name="path" class="cls-4" d="M237.59,241.5l.188-3.2c.151-2.572.4-5.113.751-7.536l.123-.861.862-.114c2.521-.334,5.149-.576,7.808-.721l3.366-.183-2.556,2.2c-1.447,1.246-2.895,2.564-4.3,3.919s-2.779,2.755-4.07,4.145Zm3.093-9.543c-.143,1.083-.267,2.186-.371,3.3q.948-.96,1.928-1.906.923-.888,1.863-1.754c-1.154.1-2.3.223-3.42.358Z" transform="translate(-212.798 -205.006)"/>
      <path id="path-11" data-name="path" class="cls-3" d="M123.2,139.317l-.7-.522a134.941,134.941,0,0,1-10.443-8.808c-1.814-1.747-2.173-2.087-2.572-2.563a97.319,97.319,0,0,1-6.586-7.513,69.441,69.441,0,0,1-8.4-13.647c-3.017-6.857-3.017-11.811.016-14.733,2.9-2.788,7.971-2.759,15.085.088a70.72,70.72,0,0,1,13.589,7.5c4.11-2.9,21.527-14.468,28.674-7.587a8.179,8.179,0,0,1,2.254,6.7,23.955,23.955,0,0,1-2.174,7.92,69.621,69.621,0,0,1-8.462,13.765,97.285,97.285,0,0,1-6.587,7.513c-.4.471-.757.815-2.565,2.555l-.007.007a134.078,134.078,0,0,1-10.435,8.8h0ZM100.41,91.76a6,6,0,0,0-4.295,1.425c-5.1,4.9,3.391,18.7,8.593,25.308a95.056,95.056,0,0,0,6.457,7.358l.054.059c.326.385.633.685,2.437,2.421,3.459,3.331,7.864,6.8,9.542,8.1,1.67-1.294,6.078-4.764,9.542-8.1l.007-.007c1.734-1.67,2.1-2.017,2.428-2.413l.054-.059a95.033,95.033,0,0,0,6.453-7.358,66.985,66.985,0,0,0,8.162-13.264c3.167-7.249,1.983-10.551.431-12.044-1.575-1.516-5.08-2.654-12.835.535a70.78,70.78,0,0,0-13.565,7.737l-.677.494-.677-.494a69.554,69.554,0,0,0-13.765-7.707A24.2,24.2,0,0,0,100.41,91.76Z" transform="translate(-82.62 -80.053)"/>
      <path id="path-12" data-name="path" class="cls-3" d="M276.27,14.172l-2.171-.748C277.084,4.768,281.338,0,286.077,0s8.992,4.767,11.976,13.42l-2.17.748a28.379,28.379,0,0,0-4.62-8.87c-1.68-1.992-3.425-3-5.186-3S282.571,3.307,280.89,5.3A28.42,28.42,0,0,0,276.27,14.172Z" transform="translate(-245.498)"/>
      <path id="path-13" data-name="path" class="cls-3" d="M34.53,290.664c-2.667-.145-5.3-.387-7.814-.722a74.387,74.387,0,0,1-12.787-2.761C4.947,284.307,0,280.191,0,275.591S4.947,266.875,13.931,264l.7,2.191A30.467,30.467,0,0,0,5.4,270.653c-2.06,1.608-3.1,3.27-3.1,4.938s1.043,3.331,3.1,4.942A30.358,30.358,0,0,0,14.629,285a71.956,71.956,0,0,0,12.389,2.671c2.459.327,5.029.565,7.636.705Z" transform="translate(0 -236.452)"/>
      <path id="path-14" data-name="path" class="cls-3" d="M445.715,290.618l-.125-2.3c2.609-.143,5.184-.381,7.643-.706a71.828,71.828,0,0,0,12.384-2.671,30.4,30.4,0,0,0,9.227-4.462c2.058-1.611,3.1-3.272,3.1-4.94s-1.043-3.33-3.1-4.94a30.366,30.366,0,0,0-9.227-4.462l.7-2.191c8.974,2.875,13.924,6.991,13.924,11.589s-4.944,8.714-13.922,11.589a74.177,74.177,0,0,1-12.783,2.761C451.017,290.229,448.387,290.473,445.715,290.618Z" transform="translate(-399.093 -236.407)"/>
      <path id="path-15" data-name="path" class="cls-3" d="M394.7,388.93c-3.3,0-7.418-1.148-12.151-3.438a72.242,72.242,0,0,1-11.072-6.763l-1.268-.927,1.268-.927c1.99-1.455,3.979-3.037,5.912-4.7,1.45-1.247,2.9-2.567,4.306-3.924s2.774-2.75,4.07-4.151c1.731-1.864,3.372-3.785,4.874-5.7l.9-1.148.9,1.148a69.036,69.036,0,0,1,7.023,10.677c4.252,8.175,4.734,14.468,1.357,17.723A8.5,8.5,0,0,1,394.7,388.93Zm-20.6-11.14a68.362,68.362,0,0,0,9.445,5.635,30.714,30.714,0,0,0,9.809,3.13c2.661.266,4.64-.209,5.882-1.4s1.711-3.066,1.439-5.6a28.023,28.023,0,0,0-3.241-9.413,64.836,64.836,0,0,0-5.9-9.171c-1.283,1.585-2.651,3.15-4.077,4.693-1.327,1.433-2.728,2.86-4.162,4.243s-2.922,2.736-4.4,4.011C377.318,375.266,375.719,376.564,374.1,377.79Z" transform="translate(-331.579 -319.98)"/>
      <path id="path-16" data-name="path" class="cls-3" d="M101.091,388.93a8.519,8.519,0,0,1-6.127-2.122c-3.377-3.254-2.895-9.547,1.357-17.72a68.988,68.988,0,0,1,7.023-10.679l.9-1.148.9,1.148c1.5,1.905,3.14,3.822,4.879,5.7,1.3,1.409,2.673,2.8,4.07,4.146s2.855,2.674,4.308,3.926c1.95,1.677,3.939,3.258,5.911,4.7l1.269.927-1.268.929a72.3,72.3,0,0,1-11.068,6.76C108.512,387.778,104.389,388.93,101.091,388.93Zm3.173-27.955a64.717,64.717,0,0,0-5.9,9.172,28.052,28.052,0,0,0-3.242,9.416c-.272,2.53.209,4.414,1.439,5.6s3.221,1.67,5.883,1.4a30.832,30.832,0,0,0,9.809-3.13,67.752,67.752,0,0,0,9.445-5.635c-1.6-1.214-3.207-2.511-4.785-3.868-1.485-1.279-2.966-2.629-4.4-4.012s-2.824-2.8-4.158-4.239c-1.434-1.559-2.8-3.132-4.083-4.705Z" transform="translate(-83.062 -319.98)"/>
    </g>
  </g>
</svg>
