<svg xmlns="http://www.w3.org/2000/svg" viewBox="0 0 777.65 750.16"><defs><style>.cls-1{fill:#f490b1;}.cls-2,.cls-3{fill:#2e4970;}.cls-3{opacity:0.33;}</style></defs><title>Heart Nebula_1</title><g id="Layer_2" data-name="Layer 2"><g id="Layer_2-2" data-name="Layer 2"><path class="cls-1" d="M388.85,196.25C331,154,177.6,64.09,121.69,117.93,63.23,174.23,159.15,319.47,203,375.19a920.56,920.56,0,0,0,62.63,71.37c3.57,4.24,6.81,7.35,24.13,24,42.6,41,99.07,83.54,99.07,83.54l0,0c1-.75,56.83-42.87,99-83.52,17.32-16.68,20.55-19.79,24.13-24a920.56,920.56,0,0,0,62.63-71.37C620.56,316.92,714.1,173.86,656,117.93,597.4,61.49,444.08,155.94,388.85,196.25Z"/><path class="cls-2" d="M388.9,567.94l-6.67-5c-.57-.43-57.49-43.4-100.08-84.41-17.38-16.74-20.82-20-24.65-24.56a932.62,932.62,0,0,1-63.12-72c-12.18-15.46-54-70.6-80.47-130.78C85,185.48,85,138,114.06,110c27.75-26.72,76.39-26.44,144.56.84,48.65,19.46,97.9,49,130.23,71.87,39.39-27.8,206.3-138.65,274.79-72.71,15.95,15.36,23.21,36.95,21.6,64.17-1.29,21.68-8.3,47.21-20.83,75.9-26.33,60.27-68.72,116.2-81.09,131.91a932.34,932.34,0,0,1-63.12,72c-3.83,4.51-7.25,7.81-24.58,24.49l-.07.07c-41.85,40.3-97.5,82.45-100,84.33l0,0ZM170.48,112.19c-16.38,0-30.93,3.8-41.16,13.66-48.86,47,32.5,179.22,82.35,242.53a910.86,910.86,0,0,0,61.88,70.51l.52.57c3.12,3.69,6.07,6.56,23.35,23.2,33.15,31.92,75.36,65.19,91.44,77.61,16-12.4,58.25-45.65,91.44-77.61l.07-.07c16.62-16,20.08-19.33,23.27-23.12l.52-.57A910.64,910.64,0,0,0,566,368.39c12-15.19,52.94-69.24,78.22-127.11,30.35-69.47,19-101.11,4.13-115.42-15.09-14.53-48.68-25.43-123,5.13-47.94,19.7-98.59,51.22-130,74.15l-6.49,4.73-6.49-4.73c-29.49-21.53-81.73-53.79-131.91-73.86C225.62,121.34,195.86,112.19,170.48,112.19Z"/><path class="cls-2" d="M388.88,750.16c-45.43,0-86.2-45.7-114.8-128.69-12-34.88-21.28-74.66-27.49-118.21-3.33-23.29-5.75-47.6-7.2-72.27l22-1.29c1.41,24.06,3.77,47.76,7,70.45,6,42.18,14.93,80.58,26.51,114.15,12.4,36,27.71,65.38,44.28,85,16.11,19.12,32.84,28.81,49.72,28.81s33.6-9.69,49.71-28.81c16.56-19.66,31.87-49.06,44.27-85,11.58-33.55,20.5-72,26.53-114.19,3.24-22.72,5.6-46.44,7-70.48l22,1.29c-1.45,24.65-3.87,49-7.19,72.3-6.23,43.6-15.48,83.39-27.51,118.25C475.06,704.47,434.3,750.16,388.88,750.16Z"/><path class="cls-3" d="M244.54,261.26l2-14.36c6.21-43.55,15.47-83.34,27.51-118.25l4-11.7,11.15,5.38c34,16.44,69.73,38.24,106.06,64.78L407.49,196l-12.15,8.88C376.27,218.81,357.19,234,338.64,250l-2.84,2.44-3.74.2c-24.93,1.35-49.53,3.63-73.13,6.75ZM291,147.74a622.87,622.87,0,0,0-20.42,88C289,233.6,308,232,327.13,230.85c14.15-12.09,28.58-23.71,43.08-34.69A672,672,0,0,0,291,147.74Z"/><path class="cls-3" d="M203,392.85l-8.65-11c-27.55-35-50.19-69.42-67.29-102.3l-6-11.57,12.42-4c36.15-11.58,77.38-20.49,122.54-26.47l14.39-1.91L268.37,250c-3.24,22.67-5.6,46.35-7,70.4l-.23,3.94-2.68,2.89c-16.69,18-32.42,36.38-46.76,54.62ZM152.88,281.08a643.49,643.49,0,0,0,50.29,76.19c11.46-14.09,23.68-28.19,36.45-42.09,1.15-18.24,2.83-36.27,5-53.81A691.44,691.44,0,0,0,152.88,281.08Z"/><path class="cls-3" d="M299.8,254.36l24.48-21.08c19-16.36,38.54-31.89,58.08-46.17l6.49-4.75,6.49,4.75c19.52,14.27,39.06,29.8,58.08,46.17l24.49,21.08-32.27-1.76a1057.75,1057.75,0,0,0-113.59,0Zm89-25.29c8.49,0,17,.1,25.48.3q-12.68-10.17-25.46-19.71-12.77,9.52-25.46,19.71C371.86,229.17,380.35,229.07,388.83,229.07Z"/><path class="cls-3" d="M574.68,392.85l-8.65-11a934.83,934.83,0,0,0-85.75-94.35c-13.45-13-27.31-25.59-41.21-37.55l-24.5-21.08,32.27,1.76c72.67,4,140.29,15.31,195.7,32.85h2.85l8.95,8.94-3.73,7.15c-17.12,32.87-39.76,67.29-67.29,102.28Zm-97-138q9,8.28,17.86,16.8a968.4,968.4,0,0,1,79,85.6,645.27,645.27,0,0,0,50.29-76.18C581.73,268.48,531.59,259.55,477.69,254.86Z"/><path class="cls-3" d="M388.85,567.75,382.36,563c-19.38-14.16-38.9-29.68-58-46.12-14.22-12.25-28.42-25.18-42.19-38.45s-27.06-26.82-39.85-40.62l-2.68-2.9-.23-3.94c-1.07-18.43-1.62-37.24-1.62-55.91s.54-37.51,1.62-56l.23-3.94,2.68-2.9c12.62-13.62,26-27.28,39.84-40.61s28-26.18,42.14-38.39l2.84-2.44,3.74-.2c19.06-1,38.56-1.57,58-1.57s38.94.53,58,1.57l3.74.2,2.84,2.44c14.21,12.23,28.39,25.14,42.13,38.39a956.85,956.85,0,0,1,87.77,96.59l5.35,6.8-5.35,6.8c-14.8,18.8-30.91,37.61-47.88,55.92-12.72,13.73-26.15,27.41-39.89,40.66s-28,26.24-42.19,38.44c-19,16.32-38.48,31.84-58,46.13Zm-127.72-142c11.69,12.51,23.88,24.88,36.28,36.83,13.48,13,27.37,25.64,41.28,37.62,16.54,14.23,33.39,27.74,50.16,40.24,16.9-12.6,33.75-26.12,50.16-40.25,13.88-11.94,27.77-24.59,41.27-37.6s26.58-26.34,39-39.78c14.52-15.66,28.39-31.7,41.31-47.76a942.24,942.24,0,0,0-80.34-87.55c-12.53-12.08-25.43-23.87-38.38-35.1a1058.24,1058.24,0,0,0-106.11,0c-12.93,11.21-25.83,23-38.39,35.11S272.68,312,261.13,324.34c-.9,16.76-1.36,33.81-1.36,50.74S260.23,409,261.13,425.77Z"/><path class="cls-3" d="M263.13,460.29,242.3,437.83c-17.07-18.41-33.19-37.24-47.92-56l-5.35-6.8,5.35-6.8c14.71-18.71,30.83-37.54,47.92-56l20.83-22.47-1.78,30.59c-1,18-1.58,36.42-1.58,54.68s.53,36.63,1.58,54.63Zm-46.05-85.23q10.11,12.58,21,25.14c-.22-8.37-.33-16.76-.33-25.12s.11-16.78.33-25.17Q227.21,362.46,217.08,375.06Z"/><path class="cls-3" d="M237.59,349.74l1.8-30.63c1.45-24.65,3.87-49,7.2-72.22l1.18-8.25,8.26-1.09c24.16-3.2,49.34-5.52,74.83-6.91l32.26-1.75L338.63,250c-13.87,11.94-27.74,24.57-41.22,37.56s-26.63,26.4-39,39.72Zm29.64-91.45c-1.37,10.38-2.56,20.95-3.56,31.65q9.08-9.2,18.48-18.27Q291,263.16,300,254.86C288.94,255.83,278,257,267.23,258.29Z"/><path class="cls-2" d="M388.9,567.94l-6.67-5c-.57-.43-57.49-43.4-100.08-84.41-17.38-16.74-20.82-20-24.65-24.56a932.62,932.62,0,0,1-63.12-72c-12.18-15.46-54-70.6-80.47-130.78C85,185.48,85,138,114.06,110c27.75-26.72,76.39-26.44,144.56.84,48.65,19.46,97.9,49,130.23,71.87,39.39-27.8,206.3-138.65,274.79-72.71,15.95,15.36,23.21,36.95,21.6,64.17-1.29,21.68-8.3,47.21-20.83,75.9-26.33,60.27-68.72,116.2-81.09,131.91a932.34,932.34,0,0,1-63.12,72c-3.83,4.51-7.25,7.81-24.58,24.49l-.07.07c-41.85,40.3-97.5,82.45-100,84.33l0,0ZM170.48,112.19c-16.38,0-30.93,3.8-41.16,13.66-48.86,47,32.5,179.22,82.35,242.53a910.86,910.86,0,0,0,61.88,70.51l.52.57c3.12,3.69,6.07,6.56,23.35,23.2,33.15,31.92,75.36,65.19,91.44,77.61,16-12.4,58.25-45.65,91.44-77.61l.07-.07c16.62-16,20.08-19.33,23.27-23.12l.52-.57A910.64,910.64,0,0,0,566,368.39c12-15.19,52.94-69.24,78.22-127.11,30.35-69.47,19-101.11,4.13-115.42-15.09-14.53-48.68-25.43-123,5.13-47.94,19.7-98.59,51.22-130,74.15l-6.49,4.73-6.49-4.73c-29.49-21.53-81.73-53.79-131.91-73.86C225.62,121.34,195.86,112.19,170.48,112.19Z"/><path class="cls-2" d="M294.9,135.81l-20.8-7.17C302.7,45.69,343.46,0,388.88,0s86.17,45.68,114.77,128.61l-20.8,7.17c-12.4-36-27.71-65.34-44.27-85C422.48,31.69,405.76,22,388.88,22s-33.6,9.69-49.71,28.8C322.61,70.45,307.3,99.85,294.9,135.81Z"/><path class="cls-2" d="M330.91,519.53c-25.56-1.39-50.75-3.71-74.88-6.92-45.14-6-86.37-14.88-122.54-26.46C47.41,458.61,0,419.16,0,375.08S47.41,291.55,133.5,264l6.7,21c-37.42,12-68,26.76-88.46,42.76C32,343.17,22,359.1,22,375.08S32,407,51.73,422.44c20.45,16,51,30.79,88.46,42.77,34.93,11.18,74.88,19.79,118.73,25.6,23.57,3.13,48.19,5.41,73.18,6.76Z"/><path class="cls-2" d="M446.79,519.52l-1.2-22c25-1.37,49.68-3.65,73.24-6.77,43.85-5.81,83.78-14.42,118.68-25.6,37.41-12,68-26.76,88.42-42.76,19.72-15.44,29.72-31.36,29.72-47.34s-10-31.91-29.72-47.34c-20.44-16-51-30.78-88.42-42.76l6.71-21c86,27.55,133.44,67,133.44,111.06s-47.38,83.51-133.42,111.06c-36.14,11.57-77.36,20.48-122.5,26.46C497.6,515.79,472.39,518.13,446.79,519.52Z"/><path class="cls-2" d="M604.92,660.76c-31.6,0-71.09-11-116.45-32.95C454.4,611.36,418.7,589.56,382.36,563l-12.15-8.88,12.15-8.88c19.07-13.94,38.13-29.1,56.66-45,13.9-11.95,27.78-24.6,41.27-37.6s26.58-26.35,39-39.78C535.88,405,551.6,386.59,566,368.26l8.65-11,8.64,11c27.55,35,50.19,69.44,67.3,102.32,40.75,78.34,45.37,138.65,13,169.84C649.55,654,629.65,660.76,604.92,660.76ZM407.49,554C438.55,575.81,469,594,498,608c35.24,17,67.74,27.41,94,30,25.5,2.55,44.47-2,56.37-13.45s16.4-29.38,13.79-53.64c-2.7-25.15-13.44-56.34-31.06-90.21-14.7-28.25-33.7-57.76-56.58-87.89C562.22,408,549.11,423,535.45,437.78c-12.72,13.73-26.14,27.41-39.89,40.66s-28,26.22-42.19,38.44C438.33,529.82,423,542.25,407.49,554Z"/><path class="cls-2" d="M172.77,660.76c-24.73,0-44.62-6.76-58.72-20.34-32.36-31.18-27.74-91.49,13-169.82,17.09-32.87,39.73-67.3,67.3-102.34l8.65-11,8.64,11c14.36,18.26,30.09,36.63,46.76,54.61,12.5,13.5,25.62,26.86,39,39.73s27.36,25.63,41.28,37.62c18.69,16.07,37.75,31.22,56.65,45l12.16,8.88L395.34,563c-36.33,26.54-72,48.33-106.07,64.78C243.89,649.72,204.38,660.76,172.77,660.76Zm30.41-267.9c-22.9,30.15-41.9,59.67-56.58,87.9C129,514.62,118.23,545.81,115.53,571c-2.61,24.25,2,42.3,13.79,53.63s30.87,16,56.38,13.45c26.23-2.62,58.74-13,94-30,29.08-14,59.47-32.19,90.51-54-15.35-11.63-30.73-24.06-45.86-37.07-14.23-12.26-28.42-25.19-42.19-38.45s-27.06-26.82-39.85-40.62C228.57,423,215.45,407.93,203.18,392.85Z"/></g></g></svg>